<svg width="156" height="39" fill="none" xmlns="http://www.w3.org/2000/svg"><path d="M28.57 5.15H0V10.95h3.422V8.471h25.149v2.479h3.422V5.15h-3.422Z" fill="#18A0FB"/><path d="M24.053 13.215c0-1.293-.329-2.566-.96-3.706a7.91 7.91 0 0 0-2.654-2.821 8.277 8.277 0 0 0-7.603-.67 8.037 8.037 0 0 0-3.134 2.311 7.715 7.715 0 0 0-1.632 3.477 7.6 7.6 0 0 0 .26 3.813 7.791 7.791 0 0 0 2.091 3.237L8.004 29.961h15.919l-1.97-11.481a7.665 7.665 0 0 0 2.1-5.265Zm-4.334 13.45h-7.446l1.165-10.077a4.582 4.582 0 0 1-1.832-2.212 4.428 4.428 0 0 1-.127-2.835 4.55 4.55 0 0 1 1.627-2.357 4.78 4.78 0 0 1 2.75-.965 4.795 4.795 0 0 1 2.804.803 4.572 4.572 0 0 1 1.77 2.258c.327.917.344 1.911.049 2.838a4.56 4.56 0 0 1-1.692 2.314l.932 10.232Z" fill="#18A0FB"/><path d="M23.128 9.573h-3.795a4.73 4.73 0 0 0-1.795-1.102h4.863c.276.346.518.714.727 1.102Z" fill="#18A0FB"/><path d="M38.477 8.832V6.418h14.38v2.414H47.06V25h-2.795V8.832h-5.788ZM56.036 25V6.418h11.65v2.414h-8.847v5.661h8.239v2.405h-8.239v5.689h8.955V25H56.036Zm25.53-13.7c-.097-.86-.497-1.525-1.198-1.997-.702-.478-1.585-.716-2.65-.716-.762 0-1.421.12-1.978.362-.556.236-.989.563-1.297.98-.303.412-.454.88-.454 1.407 0 .441.103.822.309 1.143.211.32.487.59.825.808.345.211.714.39 1.107.535.393.139.771.254 1.134.345l1.815.471c.593.146 1.2.342 1.824.59a7.31 7.31 0 0 1 1.733.98c.532.405.962.907 1.288 1.506.333.599.5 1.316.5 2.15 0 1.053-.273 1.988-.817 2.804-.539.817-1.322 1.461-2.35 1.933-1.023.472-2.26.707-3.711.707-1.392 0-2.595-.22-3.612-.662-1.016-.441-1.811-1.068-2.386-1.878-.574-.817-.892-1.784-.952-2.903h2.812c.055.671.273 1.23.654 1.678.387.442.88.771 1.478.99a5.978 5.978 0 0 0 1.987.317c.793 0 1.498-.124 2.115-.372.623-.254 1.113-.605 1.47-1.053.356-.454.535-.983.535-1.588 0-.55-.157-1-.472-1.352-.309-.35-.729-.64-1.261-.87a12.336 12.336 0 0 0-1.788-.608l-2.195-.6c-1.488-.405-2.668-1-3.539-1.787-.865-.786-1.297-1.826-1.297-3.12 0-1.072.29-2.006.87-2.805.581-.798 1.368-1.418 2.36-1.86.992-.447 2.11-.671 3.357-.671 1.258 0 2.368.22 3.33.662.968.442 1.73 1.05 2.286 1.824.557.768.847 1.651.871 2.65h-2.704Zm5.391-2.468V6.418h14.381v2.414H95.54V25h-2.794V8.832h-5.789ZM104.516 25V6.418h6.805c1.319 0 2.41.218 3.275.653.865.43 1.513 1.014 1.942 1.751.429.732.644 1.558.644 2.478 0 .774-.142 1.427-.426 1.96-.285.526-.666.949-1.143 1.27a5.036 5.036 0 0 1-1.561.69v.18c.617.03 1.219.23 1.805.6.593.362 1.083.88 1.47 1.55.387.672.581 1.489.581 2.45 0 .95-.224 1.803-.671 2.56-.442.75-1.125 1.345-2.051 1.787-.925.435-2.108.653-3.548.653h-7.122Zm2.804-2.404h4.046c1.343 0 2.305-.26 2.886-.78.58-.52.871-1.171.871-1.951 0-.587-.149-1.125-.445-1.615-.296-.49-.72-.88-1.27-1.17-.545-.291-1.192-.436-1.942-.436h-4.146v5.952Zm0-8.14h3.756c.629 0 1.195-.12 1.697-.362.508-.242.91-.58 1.206-1.016.303-.442.454-.962.454-1.56 0-.769-.269-1.413-.808-1.933-.538-.52-1.364-.78-2.476-.78h-3.829v5.652Zm30.055 1.253c0 1.984-.363 3.69-1.089 5.117-.726 1.422-1.721 2.517-2.985 3.285-1.258.762-2.689 1.143-4.292 1.143-1.609 0-3.045-.381-4.31-1.143-1.258-.768-2.25-1.866-2.976-3.294-.726-1.427-1.088-3.13-1.088-5.108 0-1.984.362-3.687 1.088-5.108.726-1.428 1.718-2.523 2.976-3.285 1.265-.768 2.701-1.152 4.31-1.152 1.603 0 3.034.384 4.292 1.152 1.264.762 2.259 1.857 2.985 3.285.726 1.421 1.089 3.124 1.089 5.108Zm-2.777 0c0-1.512-.245-2.785-.735-3.82-.484-1.04-1.149-1.826-1.996-2.359-.841-.538-1.793-.807-2.858-.807-1.071 0-2.026.269-2.867.807-.841.533-1.506 1.319-1.996 2.36-.484 1.034-.726 2.307-.726 3.819s.242 2.788.726 3.829c.49 1.034 1.155 1.82 1.996 2.359.841.532 1.796.798 2.867.798 1.065 0 2.017-.266 2.858-.798.847-.538 1.512-1.325 1.996-2.36.49-1.04.735-2.316.735-3.828ZM140.87 25V6.418h6.624c1.439 0 2.634.248 3.583.744.956.496 1.67 1.183 2.142 2.06.472.87.707 1.878.707 3.021 0 1.137-.239 2.138-.716 3.003-.472.86-1.186 1.528-2.142 2.005-.949.478-2.144.717-3.584.717h-5.017v-2.413h4.763c.908 0 1.646-.13 2.214-.39.575-.26.995-.638 1.261-1.134.267-.497.4-1.092.4-1.788 0-.702-.136-1.31-.409-1.824-.266-.514-.686-.907-1.261-1.18-.568-.277-1.315-.417-2.241-.417h-3.52V25h-2.804Zm9.173-8.384L154.634 25h-3.194l-4.5-8.384h3.103Z" fill="#000"/><path d="M44.65 38.098v-6.754h.729v.78h.09a6.68 6.68 0 0 1 .23-.326c.1-.134.243-.254.428-.358.188-.107.442-.16.761-.16.414 0 .779.103 1.094.31.316.207.562.5.739.88.177.379.265.827.265 1.343 0 .52-.088.97-.265 1.352-.177.38-.422.674-.736.883-.313.207-.675.31-1.084.31-.315 0-.568-.052-.758-.156a1.406 1.406 0 0 1-.438-.362 4.814 4.814 0 0 1-.236-.339h-.065v2.597h-.754Zm.742-4.298c0 .37.054.698.163.982.108.281.267.502.476.662.21.157.465.236.768.236.315 0 .579-.083.79-.25.213-.168.373-.394.48-.677.108-.286.163-.604.163-.953 0-.346-.054-.657-.16-.934-.105-.28-.264-.5-.477-.662-.21-.164-.476-.246-.796-.246-.307 0-.565.078-.774.233a1.402 1.402 0 0 0-.473.646c-.107.275-.16.596-.16.963Zm4.746 2.456v-4.912h.729v.742h.05c.09-.243.252-.44.487-.592a1.43 1.43 0 0 1 .793-.227 8.518 8.518 0 0 1 .397.013v.767a2.207 2.207 0 0 0-.176-.028 1.722 1.722 0 0 0-.285-.023c-.239 0-.452.05-.64.15a1.103 1.103 0 0 0-.601 1.001v3.109h-.754Zm4.796.115c-.311 0-.594-.059-.848-.176a1.455 1.455 0 0 1-.604-.515 1.453 1.453 0 0 1-.224-.819c0-.28.055-.509.166-.684.111-.177.26-.315.445-.416.185-.1.39-.174.614-.224.226-.05.453-.091.681-.121.299-.038.54-.067.726-.086.188-.022.324-.057.41-.106.087-.049.13-.134.13-.256v-.025c0-.316-.086-.561-.258-.736-.171-.175-.43-.262-.778-.262-.36 0-.642.079-.847.237a1.398 1.398 0 0 0-.432.505l-.716-.256a1.72 1.72 0 0 1 .511-.697c.216-.169.45-.286.704-.352.256-.068.508-.102.755-.102.158 0 .339.019.544.057.206.037.406.112.598.227.194.116.354.29.482.522.128.232.192.543.192.933v3.237h-.755v-.665h-.038a1.33 1.33 0 0 1-.256.342c-.12.121-.278.225-.476.31-.198.085-.44.128-.726.128Zm.115-.678c.298 0 .55-.059.755-.176a1.196 1.196 0 0 0 .627-1.04v-.69c-.032.038-.103.074-.212.105a3.56 3.56 0 0 1-.37.08 16.692 16.692 0 0 1-.723.096c-.196.026-.38.068-.55.125a.949.949 0 0 0-.41.253c-.102.11-.153.262-.153.454 0 .262.097.46.29.595.197.132.445.198.746.198Zm5.51.665c-.461 0-.858-.108-1.19-.326a2.126 2.126 0 0 1-.768-.899 3.044 3.044 0 0 1-.268-1.308c0-.498.091-.939.275-1.32.185-.384.443-.684.774-.9.332-.217.72-.325 1.164-.325.345 0 .656.064.933.192.278.127.505.307.682.537.177.23.286.499.329.806h-.755a1.17 1.17 0 0 0-.383-.595c-.197-.175-.461-.262-.794-.262-.294 0-.552.076-.773.23a1.5 1.5 0 0 0-.515.643 2.382 2.382 0 0 0-.183.969c0 .38.06.71.18.991.12.282.291.5.511.656.222.155.482.233.78.233.197 0 .375-.034.535-.102a1.102 1.102 0 0 0 .642-.755h.755a1.747 1.747 0 0 1-.979 1.334c-.273.134-.59.201-.953.201Zm5.17-5.014v.64h-2.545v-.64h2.546Zm-1.803-1.177h.755v4.682c0 .213.03.373.092.48a.48.48 0 0 0 .243.21c.1.035.206.052.317.052.083 0 .151-.005.205-.013l.128-.026.153.678a1.573 1.573 0 0 1-.563.09c-.213 0-.422-.046-.627-.138a1.246 1.246 0 0 1-.505-.419c-.132-.187-.198-.424-.198-.71v-4.886Zm2.939 6.089v-4.912h.755v4.912h-.755Zm.384-5.731a.537.537 0 0 1-.38-.15.483.483 0 0 1-.158-.362c0-.14.053-.26.157-.361.107-.1.234-.15.38-.15.148 0 .274.05.378.15.107.1.16.22.16.361s-.053.261-.16.362c-.104.1-.23.15-.377.15Zm3.749 5.833c-.46 0-.858-.108-1.19-.326a2.126 2.126 0 0 1-.768-.899 3.044 3.044 0 0 1-.268-1.308c0-.498.091-.939.275-1.32.185-.384.443-.684.774-.9.332-.217.72-.325 1.164-.325.345 0 .656.064.934.192.277.127.504.307.68.537.178.23.288.499.33.806h-.755a1.17 1.17 0 0 0-.383-.595c-.196-.175-.46-.262-.793-.262-.295 0-.553.076-.774.23a1.5 1.5 0 0 0-.515.643 2.382 2.382 0 0 0-.183.969c0 .38.06.71.18.991.121.282.292.5.511.656.222.155.482.233.78.233.197 0 .375-.034.535-.102a1.102 1.102 0 0 0 .642-.755h.755a1.747 1.747 0 0 1-.978 1.334c-.273.134-.59.201-.953.201Zm5.094 0c-.473 0-.882-.104-1.225-.313a2.104 2.104 0 0 1-.79-.883c-.183-.38-.275-.82-.275-1.324 0-.503.092-.947.275-1.33a2.17 2.17 0 0 1 .774-.902c.333-.218.72-.326 1.164-.326.256 0 .509.042.758.128.25.085.477.223.681.415.205.19.368.442.49.755.121.313.182.7.182 1.158v.32H74.34v-.653h3.019a1.61 1.61 0 0 0-.167-.742 1.253 1.253 0 0 0-.467-.515 1.308 1.308 0 0 0-.71-.188c-.3 0-.56.074-.78.224a1.473 1.473 0 0 0-.502.575c-.117.237-.176.49-.176.761v.435c0 .371.064.686.192.944.13.256.31.45.54.585.23.132.498.198.803.198.198 0 .377-.027.537-.083.162-.058.302-.143.42-.256.117-.115.207-.258.271-.428l.73.204a1.617 1.617 0 0 1-.388.653c-.18.185-.405.33-.671.435a2.491 2.491 0 0 1-.899.153Zm7.851-5.014v.64h-2.545v-.64h2.545Zm-1.803-1.177h.754v4.682c0 .213.031.373.093.48a.48.48 0 0 0 .243.21c.1.035.206.052.317.052.083 0 .151-.005.204-.013l.128-.026.154.678a1.573 1.573 0 0 1-.563.09c-.213 0-.422-.046-.627-.138a1.245 1.245 0 0 1-.505-.419c-.132-.187-.198-.424-.198-.71v-4.886Zm4.945 6.191c-.473 0-.881-.104-1.224-.313a2.104 2.104 0 0 1-.79-.883c-.184-.38-.275-.82-.275-1.324 0-.503.091-.947.275-1.33a2.17 2.17 0 0 1 .773-.902c.333-.218.721-.326 1.165-.326.255 0 .508.042.757.128.25.085.477.223.682.415.204.19.368.442.489.755.122.313.182.7.182 1.158v.32h-3.786v-.653h3.019a1.61 1.61 0 0 0-.166-.742 1.253 1.253 0 0 0-.467-.515 1.308 1.308 0 0 0-.71-.188c-.301 0-.561.074-.78.224a1.472 1.472 0 0 0-.503.575 1.69 1.69 0 0 0-.176.761v.435c0 .371.064.686.192.944.13.256.31.45.54.585.23.132.499.198.803.198.199 0 .378-.027.538-.083a1.15 1.15 0 0 0 .419-.256c.117-.115.207-.258.271-.428l.73.204a1.618 1.618 0 0 1-.387.653c-.182.185-.406.33-.672.435a2.491 2.491 0 0 1-.899.153Zm6.662-3.914-.678.192a1.257 1.257 0 0 0-.189-.33.916.916 0 0 0-.332-.268c-.141-.07-.321-.106-.54-.106-.301 0-.552.07-.752.208-.199.136-.298.31-.298.521 0 .188.068.336.205.445.136.108.35.2.64.272l.729.179c.439.106.766.27.981.489.216.218.323.498.323.841 0 .282-.08.533-.243.755-.16.222-.383.396-.671.524a2.453 2.453 0 0 1-1.004.192c-.501 0-.916-.108-1.244-.326-.329-.217-.537-.535-.624-.953l.716-.18c.069.265.197.463.387.596.192.132.443.198.752.198.352 0 .63-.075.838-.224.209-.151.313-.333.313-.544 0-.17-.06-.313-.179-.428-.12-.117-.303-.205-.55-.262l-.819-.192c-.45-.107-.78-.272-.991-.496a1.2 1.2 0 0 1-.314-.847c0-.278.078-.523.234-.736.158-.213.372-.38.643-.502.273-.122.582-.182.927-.182.486 0 .868.106 1.145.32.28.213.478.494.595.844Zm3.362-1.1v.64h-2.546v-.64h2.546Zm-1.804-1.177h.755v4.682c0 .213.03.373.093.48a.48.48 0 0 0 .243.21c.1.035.205.052.316.052.083 0 .152-.005.205-.013l.128-.026.153.678c-.05.02-.122.039-.214.058a1.573 1.573 0 0 1-.349.032c-.213 0-.422-.046-.626-.138a1.245 1.245 0 0 1-.506-.419c-.132-.187-.198-.424-.198-.71v-4.886Zm6.331 2.277-.678.192a1.275 1.275 0 0 0-.189-.33.915.915 0 0 0-.333-.268c-.14-.07-.32-.106-.54-.106-.3 0-.551.07-.752.208-.198.136-.297.31-.297.521 0 .188.068.336.205.445.136.108.35.2.64.272l.728.179c.44.106.767.27.982.489.216.218.323.498.323.841 0 .282-.081.533-.243.755-.16.222-.384.396-.671.524a2.456 2.456 0 0 1-1.005.192c-.5 0-.915-.108-1.244-.326-.328-.217-.536-.535-.623-.953l.716-.18c.068.265.197.463.387.596.192.132.442.198.752.198.351 0 .631-.075.837-.224.209-.151.314-.333.314-.544 0-.17-.06-.313-.179-.428-.12-.117-.303-.205-.55-.262l-.819-.192c-.45-.107-.78-.272-.991-.496a1.2 1.2 0 0 1-.314-.847c0-.278.078-.523.234-.736.157-.213.372-.38.643-.502.272-.122.582-.182.927-.182.486 0 .868.106 1.145.32.279.213.477.494.595.844Z" fill="#18A0FB"/></svg>